<?xml version="1.0" standalone="no"?>
<!DOCTYPE svg PUBLIC "-//W3C//DTD SVG 20010904//EN"
 "http://www.w3.org/TR/2001/REC-SVG-20010904/DTD/svg10.dtd">
<svg version="1.0" xmlns="http://www.w3.org/2000/svg"
 width="700.000000pt" height="700.000000pt" viewBox="0 0 700.000000 700.000000"
 preserveAspectRatio="xMidYMid meet">
<metadata>
Created by potrace 1.14, written by Peter Selinger 2001-2017
</metadata>
<g transform="translate(0.000000,700.000000) scale(0.100000,-0.100000)"
fill="#000000" stroke="none">
<path d="M2274 6805 c-116 -21 -278 -35 -416 -35 l-128 0 0 -30 0 -30 135 0
135 0 0 -1285 0 -1285 -131 0 -130 0 3 -27 3 -28 430 0 430 0 3 28 3 27 -131
0 -132 0 5 483 c3 386 7 502 21 582 56 339 152 518 322 597 171 80 362 25 433
-126 54 -116 73 -424 69 -1106 l-3 -425 -127 -3 -128 -3 0 -29 0 -30 430 0
430 0 0 30 0 29 -127 3 -128 3 -6 635 c-5 556 -8 644 -23 709 -39 164 -100
288 -172 347 -156 129 -473 152 -663 49 -119 -65 -224 -175 -278 -292 -14 -29
-29 -53 -34 -53 -5 0 -9 254 -9 640 0 352 -3 640 -7 639 -5 -1 -40 -7 -79 -14z"/>
<path d="M5759 6816 c-13 -13 -260 -39 -419 -45 l-185 -6 -3 -27 -3 -28 140 0
141 0 0 -1285 0 -1285 -131 0 -130 0 3 -27 3 -28 430 0 430 0 3 28 3 27 -130
0 -131 0 0 459 0 459 98 18 c127 25 245 25 292 0 48 -25 98 -74 120 -116 44
-87 52 -137 60 -405 9 -285 17 -330 70 -404 65 -89 180 -130 328 -117 88 8
152 23 152 36 0 29 -12 35 -66 32 -43 -3 -60 0 -76 15 -45 39 -50 74 -58 348
-8 288 -22 378 -71 482 -53 111 -136 161 -321 192 l-98 16 48 19 c173 69 299
189 338 325 23 76 20 194 -6 262 -27 73 -96 142 -169 170 -108 41 -255 13
-330 -62 -115 -115 -87 -316 54 -380 88 -40 209 -7 261 71 21 32 27 53 28 98
0 77 -22 117 -82 145 -88 42 -55 96 41 67 57 -17 119 -83 138 -146 32 -110 5
-241 -67 -327 -93 -111 -292 -201 -546 -247 -61 -11 -117 -20 -125 -20 -11 0
-13 150 -13 845 0 465 -4 845 -8 845 -5 0 -11 -2 -13 -4z"/>
<path d="M4388 6680 c-52 -16 -98 -52 -126 -98 -23 -40 -27 -58 -27 -123 0
-66 4 -81 30 -124 42 -68 106 -100 195 -99 137 1 224 88 224 224 0 67 -8 91
-52 149 -47 63 -160 96 -244 71z"/>
<path d="M730 5944 c-14 -2 -52 -9 -85 -15 -416 -74 -666 -509 -617 -1072 40
-446 243 -736 575 -823 147 -38 337 -36 463 6 200 67 364 261 434 512 11 40
20 76 20 81 0 4 -16 7 -36 5 -36 -3 -37 -4 -58 -78 -29 -100 -95 -224 -156
-292 -93 -105 -193 -148 -341 -148 -220 0 -375 118 -454 347 -97 281 -97 775
0 1056 64 186 189 305 354 338 82 16 229 6 303 -20 146 -51 258 -182 258 -303
0 -44 -2 -48 -24 -48 -19 0 -29 11 -47 48 -32 63 -73 84 -155 80 -49 -3 -69
-10 -98 -31 -108 -83 -108 -267 1 -341 166 -113 386 3 400 212 14 189 -67 332
-230 412 -118 57 -180 71 -342 75 -77 2 -151 2 -165 -1z"/>
<path d="M4530 5904 c-41 -7 -173 -19 -292 -26 l-218 -12 0 -28 0 -28 140 0
140 0 -2 -832 -3 -833 -127 -3 -128 -3 0 -29 0 -30 430 0 430 0 0 30 0 29
-127 3 -128 3 -3 888 c-2 837 -3 887 -20 886 -9 -1 -51 -8 -92 -15z"/>
<path d="M2264 2914 c-109 -19 -285 -34 -416 -34 l-118 0 0 -30 0 -30 135 0
135 0 0 -1285 0 -1285 -131 0 -130 0 3 -27 3 -28 430 0 430 0 3 28 3 27 -130
0 -131 0 0 413 c0 226 5 464 11 527 19 211 73 423 135 535 40 71 129 156 199
191 54 26 69 29 160 29 82 -1 107 -4 140 -22 50 -26 119 -99 139 -148 50 -118
68 -439 64 -1095 l-3 -425 -127 -3 -128 -3 0 -29 0 -30 430 0 430 0 0 30 0 29
-127 3 -128 3 -6 635 c-6 671 -6 674 -55 825 -82 248 -254 356 -549 342 -134
-6 -206 -29 -311 -99 -92 -62 -162 -139 -210 -234 -21 -41 -41 -74 -46 -74 -4
0 -8 288 -8 640 0 506 -3 640 -12 639 -7 -1 -45 -7 -84 -15z"/>
<path d="M5749 2926 c-12 -13 -252 -38 -411 -44 l-183 -7 -3 -27 -3 -28 140 0
141 0 0 -1285 0 -1285 -131 0 -130 0 3 -27 3 -28 430 0 430 0 3 28 3 27 -130
0 -131 0 0 460 c0 253 1 460 3 460 1 0 54 9 117 20 139 24 192 25 252 4 51
-17 111 -71 138 -124 44 -87 52 -137 60 -405 7 -232 11 -267 31 -325 29 -84
93 -150 170 -175 59 -20 176 -25 269 -12 69 10 84 19 76 44 -6 17 -13 19 -56
15 -36 -3 -57 0 -76 13 -50 32 -56 68 -65 360 -8 285 -23 384 -69 475 -59 115
-168 175 -357 196 l-63 7 100 48 c178 88 278 208 299 359 30 219 -83 376 -279
388 -90 5 -142 -8 -206 -51 -121 -81 -141 -262 -40 -363 71 -72 175 -82 265
-26 56 34 85 89 85 157 0 70 -27 114 -87 143 -39 18 -48 27 -45 45 7 50 123
23 179 -40 48 -55 62 -98 62 -188 1 -110 -32 -183 -117 -263 -73 -67 -149
-110 -272 -151 -81 -27 -319 -81 -358 -81 -15 0 -16 72 -16 845 0 697 -2 845
-13 845 -8 0 -16 -2 -18 -4z"/>
<path d="M4349 2772 c-39 -20 -62 -41 -84 -77 -26 -43 -30 -57 -30 -124 0 -62
5 -84 24 -118 83 -146 311 -143 398 4 36 61 38 156 5 220 -59 113 -198 155
-313 95z"/>
<path d="M667 2045 c-43 -8 -111 -28 -151 -43 -248 -97 -423 -341 -477 -667
-21 -124 -16 -398 9 -520 80 -392 295 -628 627 -686 99 -17 304 -7 386 19 134
44 256 148 344 292 43 72 94 200 110 276 6 30 5 32 -30 36 -34 4 -36 3 -46
-36 -39 -157 -133 -320 -228 -395 -72 -58 -146 -84 -245 -89 -106 -5 -180 9
-258 50 -64 34 -141 109 -181 179 -130 222 -165 732 -76 1094 42 166 132 305
239 368 124 72 338 77 487 11 113 -49 213 -184 213 -286 0 -44 -2 -48 -25 -48
-19 0 -28 9 -44 44 -24 56 -58 78 -126 84 -71 6 -118 -12 -159 -60 -90 -105
-60 -270 60 -329 62 -30 160 -32 218 -4 88 42 146 131 154 235 16 229 -115
396 -363 465 -85 23 -336 29 -438 10z"/>
<path d="M4520 2014 c-61 -10 -385 -34 -477 -34 -19 0 -23 -6 -23 -30 l0 -30
140 0 140 0 -2 -832 -3 -833 -127 -3 -128 -3 0 -29 0 -30 430 0 430 0 0 30 0
29 -127 3 -128 3 -3 888 -2 887 -23 -1 c-12 -1 -56 -7 -97 -15z"/>
</g>
</svg>
