<svg width="36" height="36" viewBox="0 0 36 36" fill="none" xmlns="http://www.w3.org/2000/svg">
    <path
        d="M4.78 5.8C2.96667 5.8 2.06 7.30667 2.06 10.32C2.06 13.3333 2.98 14.84 4.82 14.84C5.51334 14.84 6.08 14.5867 6.52 14.08C6.97334 13.5733 7.28667 12.92 7.46 12.12L7.82 12.16C7.62 13.1333 7.22 13.92 6.62 14.52C6.02 15.1067 5.26 15.4 4.34 15.4C2.96667 15.4 1.92 14.94 1.2 14.02C0.480003 13.0867 0.120003 11.8667 0.120003 10.36C0.120003 8.85334 0.480003 7.65334 1.2 6.76C1.93334 5.85334 3.02 5.4 4.46 5.4C5.38 5.4 6.12667 5.6 6.7 6C7.27334 6.4 7.56 7.00667 7.56 7.82C7.56 8.22 7.42667 8.56 7.16 8.84C6.90667 9.10667 6.6 9.24 6.24 9.24C5.89334 9.24 5.60667 9.14 5.38 8.94C5.16667 8.72667 5.06 8.47334 5.06 8.18C5.06 7.87334 5.14667 7.62 5.32 7.42C5.49334 7.20667 5.72667 7.1 6.02 7.1C6.47334 7.1 6.74 7.27334 6.82 7.62C6.83334 7.74 6.89334 7.8 7 7.8C7.12 7.8 7.18 7.74 7.18 7.62C7.18 7.16667 6.97334 6.75334 6.56 6.38C6.16 5.99334 5.56667 5.8 4.78 5.8Z"
        fill="#F6F3E3" />
    <path
        d="M13.3997 14.7V15H8.97969V14.7H10.2997V1.5H8.87969V1.2H9.29969C10.353 1.2 11.293 1.11334 12.1197 0.940002V7.54H12.2397C12.4664 6.9 12.8464 6.38667 13.3797 6C13.9264 5.6 14.533 5.4 15.1997 5.4C16.3597 5.4 17.153 5.74667 17.5797 6.44C18.0064 7.12 18.2197 8.14 18.2197 9.5V14.7H19.5397V15H15.1197V14.7H16.4397V9.78C16.4397 8.27334 16.3264 7.28 16.0997 6.8C15.993 6.58667 15.8264 6.39334 15.5997 6.22C15.3864 6.04667 15.0664 5.96 14.6397 5.96C14.213 5.96 13.8064 6.11334 13.4197 6.42C13.0464 6.72667 12.7664 7.14667 12.5797 7.68C12.2464 8.62667 12.0797 9.76 12.0797 11.08V14.7H13.3997Z"
        fill="#F6F3E3" />
    <path
        d="M23.8775 14.7H25.1975V15H20.7775V14.7H22.0975V6.1H20.6775V5.8H21.0975C22.1375 5.8 23.0642 5.71334 23.8775 5.54V14.7ZM22.0775 3.62C21.8642 3.39334 21.7575 3.11334 21.7575 2.78C21.7575 2.44667 21.8642 2.16667 22.0775 1.94C22.3042 1.71334 22.5842 1.6 22.9175 1.6C23.2508 1.6 23.5308 1.71334 23.7575 1.94C23.9842 2.16667 24.0975 2.44667 24.0975 2.78C24.0975 3.11334 23.9842 3.39334 23.7575 3.62C23.5308 3.83334 23.2508 3.94 22.9175 3.94C22.5842 3.94 22.3042 3.83334 22.0775 3.62Z"
        fill="#F6F3E3" />
    <path
        d="M30.9955 9.76L29.7155 9.98V14.7H31.0355V15H26.6155V14.7H27.9355V1.5H26.5155V1.2H26.9355C27.9755 1.2 28.9021 1.11334 29.7155 0.940002V9.64C32.3555 9.29334 33.6755 8.44 33.6755 7.08C33.6755 6.68 33.5688 6.36 33.3555 6.12C33.1555 5.88 32.9021 5.76 32.5955 5.76C32.4621 5.76 32.3955 5.81334 32.3955 5.92C32.3955 6.02667 32.4555 6.09334 32.5755 6.12C32.9221 6.2 33.0955 6.46 33.0955 6.9C33.0955 7.18 32.9888 7.41334 32.7755 7.6C32.5755 7.77334 32.3221 7.86 32.0155 7.86C31.7221 7.86 31.4688 7.75334 31.2555 7.54C31.0555 7.31334 30.9555 7.02667 30.9555 6.68C30.9555 6.33334 31.0888 6.03334 31.3555 5.78C31.6355 5.52667 32.0021 5.4 32.4555 5.4C32.9088 5.4 33.2821 5.55334 33.5755 5.86C33.8688 6.15334 34.0155 6.56 34.0155 7.08C34.0155 8.18667 33.3221 8.98667 31.9355 9.48V9.52C32.9755 9.57334 33.6555 9.84667 33.9755 10.34C34.2955 10.8333 34.4555 11.64 34.4555 12.76V13.52C34.4555 14.0267 34.4955 14.3933 34.5755 14.62C34.6688 14.8333 34.8355 14.94 35.0755 14.94C35.1688 14.94 35.2888 14.92 35.4355 14.88L35.4755 15.12C35.1288 15.2133 34.7688 15.26 34.3955 15.26C33.2488 15.26 32.6755 14.6 32.6755 13.28V12.2C32.6755 10.5733 32.1555 9.76 31.1155 9.76H30.9955Z"
        fill="#F6F3E3" />
    <path
        d="M4.78 25.8C2.96667 25.8 2.06 27.3067 2.06 30.32C2.06 33.3333 2.98 34.84 4.82 34.84C5.51334 34.84 6.08 34.5867 6.52 34.08C6.97334 33.5733 7.28667 32.92 7.46 32.12L7.82 32.16C7.62 33.1333 7.22 33.92 6.62 34.52C6.02 35.1067 5.26 35.4 4.34 35.4C2.96667 35.4 1.92 34.94 1.2 34.02C0.480003 33.0867 0.120003 31.8667 0.120003 30.36C0.120003 28.8533 0.480003 27.6533 1.2 26.76C1.93334 25.8533 3.02 25.4 4.46 25.4C5.38 25.4 6.12667 25.6 6.7 26C7.27334 26.4 7.56 27.0067 7.56 27.82C7.56 28.22 7.42667 28.56 7.16 28.84C6.90667 29.1067 6.6 29.24 6.24 29.24C5.89334 29.24 5.60667 29.14 5.38 28.94C5.16667 28.7267 5.06 28.4733 5.06 28.18C5.06 27.8733 5.14667 27.62 5.32 27.42C5.49334 27.2067 5.72667 27.1 6.02 27.1C6.47334 27.1 6.74 27.2733 6.82 27.62C6.83334 27.74 6.89334 27.8 7 27.8C7.12 27.8 7.18 27.74 7.18 27.62C7.18 27.1667 6.97334 26.7533 6.56 26.38C6.16 25.9933 5.56667 25.8 4.78 25.8Z"
        fill="#F6F3E3" />
    <path
        d="M13.3997 34.7V35H8.97969V34.7H10.2997V21.5H8.87969V21.2H9.29969C10.353 21.2 11.293 21.1133 12.1197 20.94V27.54H12.2397C12.4664 26.9 12.8464 26.3867 13.3797 26C13.9264 25.6 14.533 25.4 15.1997 25.4C16.3597 25.4 17.153 25.7467 17.5797 26.44C18.0064 27.12 18.2197 28.14 18.2197 29.5V34.7H19.5397V35H15.1197V34.7H16.4397V29.78C16.4397 28.2733 16.3264 27.28 16.0997 26.8C15.993 26.5867 15.8264 26.3933 15.5997 26.22C15.3864 26.0467 15.0664 25.96 14.6397 25.96C14.213 25.96 13.8064 26.1133 13.4197 26.42C13.0464 26.7267 12.7664 27.1467 12.5797 27.68C12.2464 28.6267 12.0797 29.76 12.0797 31.08V34.7H13.3997Z"
        fill="#F6F3E3" />
    <path
        d="M23.8775 34.7H25.1975V35H20.7775V34.7H22.0975V26.1H20.6775V25.8H21.0975C22.1375 25.8 23.0642 25.7133 23.8775 25.54V34.7ZM22.0775 23.62C21.8642 23.3933 21.7575 23.1133 21.7575 22.78C21.7575 22.4467 21.8642 22.1667 22.0775 21.94C22.3042 21.7133 22.5842 21.6 22.9175 21.6C23.2508 21.6 23.5308 21.7133 23.7575 21.94C23.9842 22.1667 24.0975 22.4467 24.0975 22.78C24.0975 23.1133 23.9842 23.3933 23.7575 23.62C23.5308 23.8333 23.2508 23.94 22.9175 23.94C22.5842 23.94 22.3042 23.8333 22.0775 23.62Z"
        fill="#F6F3E3" />
    <path
        d="M30.9955 29.76L29.7155 29.98V34.7H31.0355V35H26.6155V34.7H27.9355V21.5H26.5155V21.2H26.9355C27.9755 21.2 28.9021 21.1133 29.7155 20.94V29.64C32.3555 29.2933 33.6755 28.44 33.6755 27.08C33.6755 26.68 33.5688 26.36 33.3555 26.12C33.1555 25.88 32.9021 25.76 32.5955 25.76C32.4621 25.76 32.3955 25.8133 32.3955 25.92C32.3955 26.0267 32.4555 26.0933 32.5755 26.12C32.9221 26.2 33.0955 26.46 33.0955 26.9C33.0955 27.18 32.9888 27.4133 32.7755 27.6C32.5755 27.7733 32.3221 27.86 32.0155 27.86C31.7221 27.86 31.4688 27.7533 31.2555 27.54C31.0555 27.3133 30.9555 27.0267 30.9555 26.68C30.9555 26.3333 31.0888 26.0333 31.3555 25.78C31.6355 25.5267 32.0021 25.4 32.4555 25.4C32.9088 25.4 33.2821 25.5533 33.5755 25.86C33.8688 26.1533 34.0155 26.56 34.0155 27.08C34.0155 28.1867 33.3221 28.9867 31.9355 29.48V29.52C32.9755 29.5733 33.6555 29.8467 33.9755 30.34C34.2955 30.8333 34.4555 31.64 34.4555 32.76V33.52C34.4555 34.0267 34.4955 34.3933 34.5755 34.62C34.6688 34.8333 34.8355 34.94 35.0755 34.94C35.1688 34.94 35.2888 34.92 35.4355 34.88L35.4755 35.12C35.1288 35.2133 34.7688 35.26 34.3955 35.26C33.2488 35.26 32.6755 34.6 32.6755 33.28V32.2C32.6755 30.5733 32.1555 29.76 31.1155 29.76H30.9955Z"
        fill="#F6F3E3" />
</svg>